# xmcd CD database file
#
# Track frame offsets:
#	150
#	21827
#	38357
#	52935
#	72770
#	93195
#	114635
#	140045
#	162020
#
# Disc length: 2429 seconds
#
# Revision: 2
# Processed by: cddbd v1.5.2PL0 Copyright (c) Steve Scherf et al.
# Submitted via: CDex 1.51
#
DISCID=69097b09
DTITLE=Philip Bailey - Triumph
DYEAR=1986
DGENRE=Soul
TTITLE0=All Soldiers
TTITLE1=Thank You
TTITLE2=The Love Of God
TTITLE3=Marvelous
TTITLE4=The Same Way (You've Always Been)
TTITLE5=The Other Side
TTITLE6=Bring It To Jesus
TTITLE7=Triumph
TTITLE8=Come Before His Presence
EXTD=YEAR: 1986
EXTT0=
EXTT1=
EXTT2=
EXTT3=
EXTT4=
EXTT5=
EXTT6=
EXTT7=
EXTT8=
PLAYORDER=
